<?xml version="1.0" standalone="no"?>
<!DOCTYPE svg PUBLIC "-//W3C//DTD SVG 20010904//EN"
 "http://www.w3.org/TR/2001/REC-SVG-20010904/DTD/svg10.dtd">
<svg version="1.0" xmlns="http://www.w3.org/2000/svg"
 width="80.00000" height="80.00000" viewBox="0 0 280.000000 280.000000"
 preserveAspectRatio="xMidYMid meet">

<g transform="translate(0.000000,280.000000) scale(0.100000,-0.100000)"
fill="darkorange" stroke="none">
<path d="M1160 2785 c-174 -33 -363 -104 -495 -187 -216 -136 -405 -341 -514
-556 l-31 -62 1281 0 1280 0 -46 88 c-151 287 -432 531 -744 649 -154 58 -253
75 -461 79 -141 2 -216 -1 -270 -11z"/>
<path d="M66 1843 c-32 -97 -56 -221 -62 -315 l-7 -98 1401 0 1402 0 0 59 c0
76 -24 215 -56 319 l-25 82 -1319 0 -1318 0 -16 -47z m229 -97 c42 -18 55 -42
55 -101 0 -61 -28 -90 -98 -100 -28 -4 -56 -4 -62 0 -11 7 -14 197 -3 208 11
12 72 8 108 -7z m189 4 c39 -14 53 -53 32 -85 -16 -24 -15 -27 5 -66 13 -27
17 -45 11 -51 -18 -18 -47 1 -64 42 -21 52 -36 51 -40 -2 -2 -35 -7 -43 -23
-43 -18 0 -20 8 -23 94 -1 52 -1 100 2 108 6 15 63 17 100 3z m204 -12 c3 -15
-4 -18 -37 -18 -34 0 -41 -3 -41 -19 0 -15 8 -21 33 -23 24 -2 32 -8 32 -23 0
-15 -8 -21 -32 -23 -25 -2 -33 -8 -33 -23 0 -15 7 -19 33 -19 18 0 38 -5 44
-11 8 -8 18 13 38 73 32 97 40 108 70 108 20 0 28 -12 54 -87 40 -109 42 -128
16 -128 -11 0 -24 10 -30 23 -7 17 -18 22 -45 22 -27 0 -38 -5 -45 -22 -9 -21
-16 -23 -95 -23 l-85 0 -3 94 c-1 52 0 101 2 108 9 22 120 14 124 -9z m289 10
c6 -7 20 -38 31 -68 l21 -55 11 31 c28 78 44 99 75 99 l30 0 3 -99 c3 -102 -3
-121 -31 -110 -12 4 -17 22 -19 67 l-3 62 -19 -55 c-35 -104 -64 -103 -98 3
l-23 71 -5 -74 c-4 -58 -8 -75 -20 -75 -12 0 -16 18 -18 94 -1 52 -1 100 2
108 7 17 50 17 63 1z m261 -94 c2 -87 0 -103 -14 -108 -34 -13 -44 12 -44 109
0 50 3 95 7 99 4 4 16 6 28 4 18 -3 20 -11 23 -104z m100 86 c11 -12 28 -40
38 -63 l19 -42 5 60 c4 52 8 60 25 60 19 0 20 -7 20 -100 l0 -100 -30 0 c-26
0 -34 7 -62 60 l-32 60 -3 -65 c-3 -57 -5 -65 -23 -65 -18 0 -20 8 -23 94 -1
52 -1 100 2 108 8 20 43 16 64 -7z m293 10 c24 -13 27 -55 3 -46 -49 19 -63
17 -88 -8 -30 -29 -33 -52 -10 -84 20 -29 64 -30 64 -2 0 13 -7 20 -20 20 -13
0 -20 7 -20 20 0 17 7 20 45 20 l45 0 0 -55 c0 -51 -2 -56 -27 -66 -40 -15
-93 -4 -122 26 -21 21 -26 35 -26 76 0 45 4 54 33 80 34 31 85 39 123 19z
m233 -6 c22 -21 11 -34 -26 -31 -45 3 -45 -19 0 -42 63 -32 64 -95 2 -121 -42
-17 -84 -4 -88 29 -3 20 -1 22 20 16 13 -4 25 -7 28 -7 43 -1 39 23 -7 53 -48
30 -57 78 -21 103 29 20 72 20 92 0z m183 -83 c19 -52 32 -100 29 -108 -9 -21
-36 -15 -48 12 -15 32 -77 37 -85 6 -3 -11 -12 -22 -21 -26 -32 -12 -34 13 -7
97 38 113 42 120 72 116 23 -3 30 -14 60 -97z m98 -11 c0 -98 -1 -105 -20
-105 -18 0 -20 8 -23 94 -3 107 1 124 25 119 16 -3 18 -16 18 -108z m130 51
l30 -53 5 53 c4 46 8 54 25 54 19 0 20 -8 23 -102 l3 -103 -30 0 c-26 0 -34 7
-63 62 l-33 63 -5 -65 c-5 -63 -7 -66 -40 -61 -15 2 -13 184 2 199 24 24 52 8
83 -47z m260 34 c0 -14 -8 -21 -27 -23 -27 -3 -27 -4 -30 -85 -3 -74 -5 -82
-23 -82 -18 0 -20 8 -23 83 -3 79 -4 82 -27 82 -27 0 -39 14 -31 36 5 12 22
14 83 12 70 -3 78 -5 78 -23z m119 19 c9 -3 16 -15 16 -26 0 -16 -5 -18 -34
-13 -50 10 -52 -10 -4 -42 49 -33 61 -72 32 -104 -36 -40 -124 -32 -124 11 0
11 1 20 3 20 1 0 16 -4 33 -9 45 -13 67 4 35 27 -43 31 -71 61 -71 75 0 8 9
26 21 41 20 26 57 34 93 20z"/>
<path d="M230 1656 c0 -63 1 -66 25 -66 28 0 45 25 45 68 0 32 -12 45 -47 56
-22 7 -23 5 -23 -58z"/>
<path d="M430 1695 c0 -18 5 -25 19 -25 23 0 34 23 18 39 -19 19 -37 12 -37
-14z"/>
<path d="M776 1668 c-9 -35 -8 -38 15 -38 16 0 19 4 14 23 -11 35 -22 41 -29
15z"/>
<path d="M1971 1667 c-14 -37 -14 -37 9 -37 21 0 24 12 10 45 -7 19 -9 18 -19
-8z"/>
<path d="M6 1228 c9 -79 49 -245 77 -318 92 -245 267 -479 476 -636 165 -124
397 -223 605 -259 116 -20 356 -20 472 0 191 33 385 111 552 222 107 71 255
213 338 322 81 108 174 290 213 418 27 86 61 249 61 289 0 11 -40 14 -220 14
l-220 0 -4 -22 c-2 -13 -12 -61 -21 -108 -70 -356 -347 -641 -712 -732 -124
-31 -322 -31 -446 0 -361 90 -634 368 -709 720 -11 53 -22 107 -24 120 l-4 22
-221 0 -220 0 7 -52z"/>
<path d="M547 1238 c10 -79 54 -212 94 -286 114 -213 291 -357 524 -428 80
-24 106 -27 235 -27 129 0 155 3 235 27 233 71 410 215 524 428 40 74 84 207
94 286 l5 42 -177 0 -177 0 -13 -49 c-14 -57 -68 -151 -114 -200 -160 -169
-445 -202 -643 -72 -32 21 -73 54 -91 72 -46 49 -100 143 -114 200 l-13 49
-187 0 -187 0 5 -42z"/>
</g>
</svg>
